<svg version="1.1" id="Layer_1" xmlns="http://www.w3.org/2000/svg" xmlns:xlink="http://www.w3.org/1999/xlink" x="0px" y="0px"
     viewBox="0 0 497.8 377" style="enable-background:new 0 0 497.8 377;" xml:space="preserve">
<g>
	<path d="M313.6,171.3l-110-60.2c-6.3-3.5-13.8-3.3-20,0.3c-6.2,3.7-9.9,10.2-9.9,17.4v119.3c0,7.2,3.7,13.7,9.8,17.3
		c3.2,1.9,6.8,2.9,10.4,2.9c3.3,0,6.6-0.8,9.6-2.4l110-59.1c6.5-3.5,10.6-10.3,10.6-17.7C324.1,181.7,320.1,174.9,313.6,171.3z
		 M202.9,233.1V144l82.2,45L202.9,233.1z" fill="white" />
    <path d="M494.1,89l0-0.2c-0.4-4-4.6-39.6-21.9-57.8c-20-21.3-42.7-23.9-53.6-25.2c-0.9-0.1-1.7-0.2-2.5-0.3l-0.9-0.1
		C349.3,0.7,250,0,249,0l-0.1,0l-0.1,0c-1,0-100.4,0.7-166.8,5.4l-0.9,0.1c-0.7,0.1-1.5,0.2-2.3,0.3C68,7.1,45.6,9.7,25.5,31.7
		C9,49.7,4.2,84.6,3.7,88.5L3.7,89C3.5,90.6,0,130.3,0,170.2v37.2c0,39.8,3.5,79.5,3.7,81.2l0,0.3c0.4,3.9,4.6,38.9,21.9,57.1
		c18.8,20.6,42.6,23.3,55.4,24.8c2,0.2,3.8,0.4,5,0.6l1.2,0.2c38,3.6,157.1,5.4,162.2,5.5l0.2,0l0.2,0c1,0,100.4-0.7,166.2-5.4
		l0.9-0.1c0.8-0.1,1.8-0.2,2.8-0.3c10.7-1.1,33.1-3.5,52.9-25.3c16.5-17.9,21.3-52.8,21.8-56.7l0.1-0.5c0.1-1.7,3.7-41.4,3.7-81.2
		v-37.2C497.7,130.3,494.2,90.6,494.1,89z M468.6,207.4c0,36.9-3.2,74.9-3.5,78.3c-1.2,9.6-6.3,31.7-14.3,40.4
		c-12.4,13.6-25.1,15-34.4,16c-1.1,0.1-2.2,0.2-3.1,0.3c-63.6,4.6-159.3,5.3-163.7,5.3c-4.9-0.1-122.3-1.9-159.2-5.3
		c-1.9-0.3-3.9-0.5-6.1-0.8c-10.9-1.2-25.8-3-37.3-15.6l-0.3-0.3c-7.9-8.2-12.8-28.9-14-40c-0.2-2.6-3.5-41.1-3.5-78.5v-37.2
		c0-36.8,3.2-74.8,3.5-78.3c1.5-11.3,6.6-32,14.3-40.4c12.8-14.1,26.2-15.6,35.2-16.6c0.9-0.1,1.6-0.2,2.4-0.3
		c64.6-4.6,160.9-5.3,164.3-5.3c3.5,0,99.7,0.7,163.7,5.3c0.8,0.1,1.6,0.2,2.6,0.3c9.2,1,23,2.6,35.7,16.2l0.1,0.1
		c7.9,8.2,12.8,29.2,14,40.6c0.2,2.5,3.5,41,3.5,78.5V207.4z" fill="white"/>
</g>
</svg>